<?xml version="1.0" encoding="utf-8" standalone="no"?>
<!DOCTYPE svg PUBLIC "-//W3C//DTD SVG 1.1//EN"
  "http://www.w3.org/Graphics/SVG/1.1/DTD/svg11.dtd">
<svg xmlns:xlink="http://www.w3.org/1999/xlink" width="864pt" height="576pt" viewBox="0 0 864 576" xmlns="http://www.w3.org/2000/svg" version="1.1">
 <metadata>
  <rdf:RDF xmlns:dc="http://purl.org/dc/elements/1.1/" xmlns:cc="http://creativecommons.org/ns#" xmlns:rdf="http://www.w3.org/1999/02/22-rdf-syntax-ns#">
   <cc:Work>
    <dc:type rdf:resource="http://purl.org/dc/dcmitype/StillImage"/>
    <dc:date>2024-06-06T09:06:56.060436</dc:date>
    <dc:format>image/svg+xml</dc:format>
    <dc:creator>
     <cc:Agent>
      <dc:title>Matplotlib v3.5.3, https://matplotlib.org/</dc:title>
     </cc:Agent>
    </dc:creator>
   </cc:Work>
  </rdf:RDF>
 </metadata>
 <defs>
  <style type="text/css">*{stroke-linejoin: round; stroke-linecap: butt}</style>
 </defs>
 <g id="figure_1">
  <g id="patch_1">
   <path d="M 0 576 
L 864 576 
L 864 0 
L 0 0 
z
" style="fill: #ffffff"/>
  </g>
  <g id="axes_1">
   <g id="patch_2">
    <path d="M 58.32 527.94 
L 851.04 527.94 
L 851.04 27.6 
L 58.32 27.6 
z
" style="fill: #ffffff"/>
   </g>
   <g id="matplotlib.axis_1">
    <g id="xtick_1">
     <g id="text_1">
      <!-- 0 -->
      <g style="fill: #262626" transform="translate(54.820625 545.798281)scale(0.11 -0.11)">
       <defs>
        <path id="DejaVuSans-30" d="M 2034 4250 
Q 1547 4250 1301 3770 
Q 1056 3291 1056 2328 
Q 1056 1369 1301 889 
Q 1547 409 2034 409 
Q 2525 409 2770 889 
Q 3016 1369 3016 2328 
Q 3016 3291 2770 3770 
Q 2525 4250 2034 4250 
z
M 2034 4750 
Q 2819 4750 3233 4129 
Q 3647 3509 3647 2328 
Q 3647 1150 3233 529 
Q 2819 -91 2034 -91 
Q 1250 -91 836 529 
Q 422 1150 422 2328 
Q 422 3509 836 4129 
Q 1250 4750 2034 4750 
z
" transform="scale(0.015625)"/>
       </defs>
       <use xlink:href="#DejaVuSans-30"/>
      </g>
     </g>
    </g>
    <g id="xtick_2">
     <g id="text_2">
      <!-- 200 -->
      <g style="fill: #262626" transform="translate(153.517875 545.798281)scale(0.11 -0.11)">
       <defs>
        <path id="DejaVuSans-32" d="M 1228 531 
L 3431 531 
L 3431 0 
L 469 0 
L 469 531 
Q 828 903 1448 1529 
Q 2069 2156 2228 2338 
Q 2531 2678 2651 2914 
Q 2772 3150 2772 3378 
Q 2772 3750 2511 3984 
Q 2250 4219 1831 4219 
Q 1534 4219 1204 4116 
Q 875 4013 500 3803 
L 500 4441 
Q 881 4594 1212 4672 
Q 1544 4750 1819 4750 
Q 2544 4750 2975 4387 
Q 3406 4025 3406 3419 
Q 3406 3131 3298 2873 
Q 3191 2616 2906 2266 
Q 2828 2175 2409 1742 
Q 1991 1309 1228 531 
z
" transform="scale(0.015625)"/>
       </defs>
       <use xlink:href="#DejaVuSans-32"/>
       <use xlink:href="#DejaVuSans-30" x="63.623047"/>
       <use xlink:href="#DejaVuSans-30" x="127.246094"/>
      </g>
     </g>
    </g>
    <g id="xtick_3">
     <g id="text_3">
      <!-- 400 -->
      <g style="fill: #262626" transform="translate(259.213875 545.798281)scale(0.11 -0.11)">
       <defs>
        <path id="DejaVuSans-34" d="M 2419 4116 
L 825 1625 
L 2419 1625 
L 2419 4116 
z
M 2253 4666 
L 3047 4666 
L 3047 1625 
L 3713 1625 
L 3713 1100 
L 3047 1100 
L 3047 0 
L 2419 0 
L 2419 1100 
L 313 1100 
L 313 1709 
L 2253 4666 
z
" transform="scale(0.015625)"/>
       </defs>
       <use xlink:href="#DejaVuSans-34"/>
       <use xlink:href="#DejaVuSans-30" x="63.623047"/>
       <use xlink:href="#DejaVuSans-30" x="127.246094"/>
      </g>
     </g>
    </g>
    <g id="xtick_4">
     <g id="text_4">
      <!-- 600 -->
      <g style="fill: #262626" transform="translate(364.909875 545.798281)scale(0.11 -0.11)">
       <defs>
        <path id="DejaVuSans-36" d="M 2113 2584 
Q 1688 2584 1439 2293 
Q 1191 2003 1191 1497 
Q 1191 994 1439 701 
Q 1688 409 2113 409 
Q 2538 409 2786 701 
Q 3034 994 3034 1497 
Q 3034 2003 2786 2293 
Q 2538 2584 2113 2584 
z
M 3366 4563 
L 3366 3988 
Q 3128 4100 2886 4159 
Q 2644 4219 2406 4219 
Q 1781 4219 1451 3797 
Q 1122 3375 1075 2522 
Q 1259 2794 1537 2939 
Q 1816 3084 2150 3084 
Q 2853 3084 3261 2657 
Q 3669 2231 3669 1497 
Q 3669 778 3244 343 
Q 2819 -91 2113 -91 
Q 1303 -91 875 529 
Q 447 1150 447 2328 
Q 447 3434 972 4092 
Q 1497 4750 2381 4750 
Q 2619 4750 2861 4703 
Q 3103 4656 3366 4563 
z
" transform="scale(0.015625)"/>
       </defs>
       <use xlink:href="#DejaVuSans-36"/>
       <use xlink:href="#DejaVuSans-30" x="63.623047"/>
       <use xlink:href="#DejaVuSans-30" x="127.246094"/>
      </g>
     </g>
    </g>
    <g id="xtick_5">
     <g id="text_5">
      <!-- 800 -->
      <g style="fill: #262626" transform="translate(470.605875 545.798281)scale(0.11 -0.11)">
       <defs>
        <path id="DejaVuSans-38" d="M 2034 2216 
Q 1584 2216 1326 1975 
Q 1069 1734 1069 1313 
Q 1069 891 1326 650 
Q 1584 409 2034 409 
Q 2484 409 2743 651 
Q 3003 894 3003 1313 
Q 3003 1734 2745 1975 
Q 2488 2216 2034 2216 
z
M 1403 2484 
Q 997 2584 770 2862 
Q 544 3141 544 3541 
Q 544 4100 942 4425 
Q 1341 4750 2034 4750 
Q 2731 4750 3128 4425 
Q 3525 4100 3525 3541 
Q 3525 3141 3298 2862 
Q 3072 2584 2669 2484 
Q 3125 2378 3379 2068 
Q 3634 1759 3634 1313 
Q 3634 634 3220 271 
Q 2806 -91 2034 -91 
Q 1263 -91 848 271 
Q 434 634 434 1313 
Q 434 1759 690 2068 
Q 947 2378 1403 2484 
z
M 1172 3481 
Q 1172 3119 1398 2916 
Q 1625 2713 2034 2713 
Q 2441 2713 2670 2916 
Q 2900 3119 2900 3481 
Q 2900 3844 2670 4047 
Q 2441 4250 2034 4250 
Q 1625 4250 1398 4047 
Q 1172 3844 1172 3481 
z
" transform="scale(0.015625)"/>
       </defs>
       <use xlink:href="#DejaVuSans-38"/>
       <use xlink:href="#DejaVuSans-30" x="63.623047"/>
       <use xlink:href="#DejaVuSans-30" x="127.246094"/>
      </g>
     </g>
    </g>
    <g id="xtick_6">
     <g id="text_6">
      <!-- 1000 -->
      <g style="fill: #262626" transform="translate(572.8025 545.798281)scale(0.11 -0.11)">
       <defs>
        <path id="DejaVuSans-31" d="M 794 531 
L 1825 531 
L 1825 4091 
L 703 3866 
L 703 4441 
L 1819 4666 
L 2450 4666 
L 2450 531 
L 3481 531 
L 3481 0 
L 794 0 
L 794 531 
z
" transform="scale(0.015625)"/>
       </defs>
       <use xlink:href="#DejaVuSans-31"/>
       <use xlink:href="#DejaVuSans-30" x="63.623047"/>
       <use xlink:href="#DejaVuSans-30" x="127.246094"/>
       <use xlink:href="#DejaVuSans-30" x="190.869141"/>
      </g>
     </g>
    </g>
    <g id="xtick_7">
     <g id="text_7">
      <!-- 1200 -->
      <g style="fill: #262626" transform="translate(678.4985 545.798281)scale(0.11 -0.11)">
       <use xlink:href="#DejaVuSans-31"/>
       <use xlink:href="#DejaVuSans-32" x="63.623047"/>
       <use xlink:href="#DejaVuSans-30" x="127.246094"/>
       <use xlink:href="#DejaVuSans-30" x="190.869141"/>
      </g>
     </g>
    </g>
    <g id="xtick_8">
     <g id="text_8">
      <!-- 1400 -->
      <g style="fill: #262626" transform="translate(784.1945 545.798281)scale(0.11 -0.11)">
       <use xlink:href="#DejaVuSans-31"/>
       <use xlink:href="#DejaVuSans-34" x="63.623047"/>
       <use xlink:href="#DejaVuSans-30" x="127.246094"/>
       <use xlink:href="#DejaVuSans-30" x="190.869141"/>
      </g>
     </g>
    </g>
    <g id="text_9">
     <!-- Time (ms) -->
     <g style="fill: #262626" transform="translate(424.440937 561.204063)scale(0.12 -0.12)">
      <defs>
       <path id="DejaVuSans-54" d="M -19 4666 
L 3928 4666 
L 3928 4134 
L 2272 4134 
L 2272 0 
L 1638 0 
L 1638 4134 
L -19 4134 
L -19 4666 
z
" transform="scale(0.015625)"/>
       <path id="DejaVuSans-69" d="M 603 3500 
L 1178 3500 
L 1178 0 
L 603 0 
L 603 3500 
z
M 603 4863 
L 1178 4863 
L 1178 4134 
L 603 4134 
L 603 4863 
z
" transform="scale(0.015625)"/>
       <path id="DejaVuSans-6d" d="M 3328 2828 
Q 3544 3216 3844 3400 
Q 4144 3584 4550 3584 
Q 5097 3584 5394 3201 
Q 5691 2819 5691 2113 
L 5691 0 
L 5113 0 
L 5113 2094 
Q 5113 2597 4934 2840 
Q 4756 3084 4391 3084 
Q 3944 3084 3684 2787 
Q 3425 2491 3425 1978 
L 3425 0 
L 2847 0 
L 2847 2094 
Q 2847 2600 2669 2842 
Q 2491 3084 2119 3084 
Q 1678 3084 1418 2786 
Q 1159 2488 1159 1978 
L 1159 0 
L 581 0 
L 581 3500 
L 1159 3500 
L 1159 2956 
Q 1356 3278 1631 3431 
Q 1906 3584 2284 3584 
Q 2666 3584 2933 3390 
Q 3200 3197 3328 2828 
z
" transform="scale(0.015625)"/>
       <path id="DejaVuSans-65" d="M 3597 1894 
L 3597 1613 
L 953 1613 
Q 991 1019 1311 708 
Q 1631 397 2203 397 
Q 2534 397 2845 478 
Q 3156 559 3463 722 
L 3463 178 
Q 3153 47 2828 -22 
Q 2503 -91 2169 -91 
Q 1331 -91 842 396 
Q 353 884 353 1716 
Q 353 2575 817 3079 
Q 1281 3584 2069 3584 
Q 2775 3584 3186 3129 
Q 3597 2675 3597 1894 
z
M 3022 2063 
Q 3016 2534 2758 2815 
Q 2500 3097 2075 3097 
Q 1594 3097 1305 2825 
Q 1016 2553 972 2059 
L 3022 2063 
z
" transform="scale(0.015625)"/>
       <path id="DejaVuSans-20" transform="scale(0.015625)"/>
       <path id="DejaVuSans-28" d="M 1984 4856 
Q 1566 4138 1362 3434 
Q 1159 2731 1159 2009 
Q 1159 1288 1364 580 
Q 1569 -128 1984 -844 
L 1484 -844 
Q 1016 -109 783 600 
Q 550 1309 550 2009 
Q 550 2706 781 3412 
Q 1013 4119 1484 4856 
L 1984 4856 
z
" transform="scale(0.015625)"/>
       <path id="DejaVuSans-73" d="M 2834 3397 
L 2834 2853 
Q 2591 2978 2328 3040 
Q 2066 3103 1784 3103 
Q 1356 3103 1142 2972 
Q 928 2841 928 2578 
Q 928 2378 1081 2264 
Q 1234 2150 1697 2047 
L 1894 2003 
Q 2506 1872 2764 1633 
Q 3022 1394 3022 966 
Q 3022 478 2636 193 
Q 2250 -91 1575 -91 
Q 1294 -91 989 -36 
Q 684 19 347 128 
L 347 722 
Q 666 556 975 473 
Q 1284 391 1588 391 
Q 1994 391 2212 530 
Q 2431 669 2431 922 
Q 2431 1156 2273 1281 
Q 2116 1406 1581 1522 
L 1381 1569 
Q 847 1681 609 1914 
Q 372 2147 372 2553 
Q 372 3047 722 3315 
Q 1072 3584 1716 3584 
Q 2034 3584 2315 3537 
Q 2597 3491 2834 3397 
z
" transform="scale(0.015625)"/>
       <path id="DejaVuSans-29" d="M 513 4856 
L 1013 4856 
Q 1481 4119 1714 3412 
Q 1947 2706 1947 2009 
Q 1947 1309 1714 600 
Q 1481 -109 1013 -844 
L 513 -844 
Q 928 -128 1133 580 
Q 1338 1288 1338 2009 
Q 1338 2731 1133 3434 
Q 928 4138 513 4856 
z
" transform="scale(0.015625)"/>
      </defs>
      <use xlink:href="#DejaVuSans-54"/>
      <use xlink:href="#DejaVuSans-69" x="57.958984"/>
      <use xlink:href="#DejaVuSans-6d" x="85.742188"/>
      <use xlink:href="#DejaVuSans-65" x="183.154297"/>
      <use xlink:href="#DejaVuSans-20" x="244.677734"/>
      <use xlink:href="#DejaVuSans-28" x="276.464844"/>
      <use xlink:href="#DejaVuSans-6d" x="315.478516"/>
      <use xlink:href="#DejaVuSans-73" x="412.890625"/>
      <use xlink:href="#DejaVuSans-29" x="464.990234"/>
     </g>
    </g>
   </g>
   <g id="matplotlib.axis_2">
    <g id="ytick_1">
     <g id="text_10">
      <!-- 0 -->
      <g style="fill: #262626" transform="translate(41.82125 532.119141)scale(0.11 -0.11)">
       <use xlink:href="#DejaVuSans-30"/>
      </g>
     </g>
    </g>
    <g id="ytick_2">
     <g id="text_11">
      <!-- 20 -->
      <g style="fill: #262626" transform="translate(34.8225 432.051141)scale(0.11 -0.11)">
       <use xlink:href="#DejaVuSans-32"/>
       <use xlink:href="#DejaVuSans-30" x="63.623047"/>
      </g>
     </g>
    </g>
    <g id="ytick_3">
     <g id="text_12">
      <!-- 40 -->
      <g style="fill: #262626" transform="translate(34.8225 331.983141)scale(0.11 -0.11)">
       <use xlink:href="#DejaVuSans-34"/>
       <use xlink:href="#DejaVuSans-30" x="63.623047"/>
      </g>
     </g>
    </g>
    <g id="ytick_4">
     <g id="text_13">
      <!-- 60 -->
      <g style="fill: #262626" transform="translate(34.8225 231.915141)scale(0.11 -0.11)">
       <use xlink:href="#DejaVuSans-36"/>
       <use xlink:href="#DejaVuSans-30" x="63.623047"/>
      </g>
     </g>
    </g>
    <g id="ytick_5">
     <g id="text_14">
      <!-- 80 -->
      <g style="fill: #262626" transform="translate(34.8225 131.847141)scale(0.11 -0.11)">
       <use xlink:href="#DejaVuSans-38"/>
       <use xlink:href="#DejaVuSans-30" x="63.623047"/>
      </g>
     </g>
    </g>
    <g id="ytick_6">
     <g id="text_15">
      <!-- 100 -->
      <g style="fill: #262626" transform="translate(27.82375 31.779141)scale(0.11 -0.11)">
       <use xlink:href="#DejaVuSans-31"/>
       <use xlink:href="#DejaVuSans-30" x="63.623047"/>
       <use xlink:href="#DejaVuSans-30" x="127.246094"/>
      </g>
     </g>
    </g>
    <g id="text_16">
     <!-- Average Firing Rate (spikes/s per neuron) -->
     <g style="fill: #262626" transform="translate(21.328125 401.700938)rotate(-90)scale(0.12 -0.12)">
      <defs>
       <path id="DejaVuSans-41" d="M 2188 4044 
L 1331 1722 
L 3047 1722 
L 2188 4044 
z
M 1831 4666 
L 2547 4666 
L 4325 0 
L 3669 0 
L 3244 1197 
L 1141 1197 
L 716 0 
L 50 0 
L 1831 4666 
z
" transform="scale(0.015625)"/>
       <path id="DejaVuSans-76" d="M 191 3500 
L 800 3500 
L 1894 563 
L 2988 3500 
L 3597 3500 
L 2284 0 
L 1503 0 
L 191 3500 
z
" transform="scale(0.015625)"/>
       <path id="DejaVuSans-72" d="M 2631 2963 
Q 2534 3019 2420 3045 
Q 2306 3072 2169 3072 
Q 1681 3072 1420 2755 
Q 1159 2438 1159 1844 
L 1159 0 
L 581 0 
L 581 3500 
L 1159 3500 
L 1159 2956 
Q 1341 3275 1631 3429 
Q 1922 3584 2338 3584 
Q 2397 3584 2469 3576 
Q 2541 3569 2628 3553 
L 2631 2963 
z
" transform="scale(0.015625)"/>
       <path id="DejaVuSans-61" d="M 2194 1759 
Q 1497 1759 1228 1600 
Q 959 1441 959 1056 
Q 959 750 1161 570 
Q 1363 391 1709 391 
Q 2188 391 2477 730 
Q 2766 1069 2766 1631 
L 2766 1759 
L 2194 1759 
z
M 3341 1997 
L 3341 0 
L 2766 0 
L 2766 531 
Q 2569 213 2275 61 
Q 1981 -91 1556 -91 
Q 1019 -91 701 211 
Q 384 513 384 1019 
Q 384 1609 779 1909 
Q 1175 2209 1959 2209 
L 2766 2209 
L 2766 2266 
Q 2766 2663 2505 2880 
Q 2244 3097 1772 3097 
Q 1472 3097 1187 3025 
Q 903 2953 641 2809 
L 641 3341 
Q 956 3463 1253 3523 
Q 1550 3584 1831 3584 
Q 2591 3584 2966 3190 
Q 3341 2797 3341 1997 
z
" transform="scale(0.015625)"/>
       <path id="DejaVuSans-67" d="M 2906 1791 
Q 2906 2416 2648 2759 
Q 2391 3103 1925 3103 
Q 1463 3103 1205 2759 
Q 947 2416 947 1791 
Q 947 1169 1205 825 
Q 1463 481 1925 481 
Q 2391 481 2648 825 
Q 2906 1169 2906 1791 
z
M 3481 434 
Q 3481 -459 3084 -895 
Q 2688 -1331 1869 -1331 
Q 1566 -1331 1297 -1286 
Q 1028 -1241 775 -1147 
L 775 -588 
Q 1028 -725 1275 -790 
Q 1522 -856 1778 -856 
Q 2344 -856 2625 -561 
Q 2906 -266 2906 331 
L 2906 616 
Q 2728 306 2450 153 
Q 2172 0 1784 0 
Q 1141 0 747 490 
Q 353 981 353 1791 
Q 353 2603 747 3093 
Q 1141 3584 1784 3584 
Q 2172 3584 2450 3431 
Q 2728 3278 2906 2969 
L 2906 3500 
L 3481 3500 
L 3481 434 
z
" transform="scale(0.015625)"/>
       <path id="DejaVuSans-46" d="M 628 4666 
L 3309 4666 
L 3309 4134 
L 1259 4134 
L 1259 2759 
L 3109 2759 
L 3109 2228 
L 1259 2228 
L 1259 0 
L 628 0 
L 628 4666 
z
" transform="scale(0.015625)"/>
       <path id="DejaVuSans-6e" d="M 3513 2113 
L 3513 0 
L 2938 0 
L 2938 2094 
Q 2938 2591 2744 2837 
Q 2550 3084 2163 3084 
Q 1697 3084 1428 2787 
Q 1159 2491 1159 1978 
L 1159 0 
L 581 0 
L 581 3500 
L 1159 3500 
L 1159 2956 
Q 1366 3272 1645 3428 
Q 1925 3584 2291 3584 
Q 2894 3584 3203 3211 
Q 3513 2838 3513 2113 
z
" transform="scale(0.015625)"/>
       <path id="DejaVuSans-52" d="M 2841 2188 
Q 3044 2119 3236 1894 
Q 3428 1669 3622 1275 
L 4263 0 
L 3584 0 
L 2988 1197 
Q 2756 1666 2539 1819 
Q 2322 1972 1947 1972 
L 1259 1972 
L 1259 0 
L 628 0 
L 628 4666 
L 2053 4666 
Q 2853 4666 3247 4331 
Q 3641 3997 3641 3322 
Q 3641 2881 3436 2590 
Q 3231 2300 2841 2188 
z
M 1259 4147 
L 1259 2491 
L 2053 2491 
Q 2509 2491 2742 2702 
Q 2975 2913 2975 3322 
Q 2975 3731 2742 3939 
Q 2509 4147 2053 4147 
L 1259 4147 
z
" transform="scale(0.015625)"/>
       <path id="DejaVuSans-74" d="M 1172 4494 
L 1172 3500 
L 2356 3500 
L 2356 3053 
L 1172 3053 
L 1172 1153 
Q 1172 725 1289 603 
Q 1406 481 1766 481 
L 2356 481 
L 2356 0 
L 1766 0 
Q 1100 0 847 248 
Q 594 497 594 1153 
L 594 3053 
L 172 3053 
L 172 3500 
L 594 3500 
L 594 4494 
L 1172 4494 
z
" transform="scale(0.015625)"/>
       <path id="DejaVuSans-70" d="M 1159 525 
L 1159 -1331 
L 581 -1331 
L 581 3500 
L 1159 3500 
L 1159 2969 
Q 1341 3281 1617 3432 
Q 1894 3584 2278 3584 
Q 2916 3584 3314 3078 
Q 3713 2572 3713 1747 
Q 3713 922 3314 415 
Q 2916 -91 2278 -91 
Q 1894 -91 1617 61 
Q 1341 213 1159 525 
z
M 3116 1747 
Q 3116 2381 2855 2742 
Q 2594 3103 2138 3103 
Q 1681 3103 1420 2742 
Q 1159 2381 1159 1747 
Q 1159 1113 1420 752 
Q 1681 391 2138 391 
Q 2594 391 2855 752 
Q 3116 1113 3116 1747 
z
" transform="scale(0.015625)"/>
       <path id="DejaVuSans-6b" d="M 581 4863 
L 1159 4863 
L 1159 1991 
L 2875 3500 
L 3609 3500 
L 1753 1863 
L 3688 0 
L 2938 0 
L 1159 1709 
L 1159 0 
L 581 0 
L 581 4863 
z
" transform="scale(0.015625)"/>
       <path id="DejaVuSans-2f" d="M 1625 4666 
L 2156 4666 
L 531 -594 
L 0 -594 
L 1625 4666 
z
" transform="scale(0.015625)"/>
       <path id="DejaVuSans-75" d="M 544 1381 
L 544 3500 
L 1119 3500 
L 1119 1403 
Q 1119 906 1312 657 
Q 1506 409 1894 409 
Q 2359 409 2629 706 
Q 2900 1003 2900 1516 
L 2900 3500 
L 3475 3500 
L 3475 0 
L 2900 0 
L 2900 538 
Q 2691 219 2414 64 
Q 2138 -91 1772 -91 
Q 1169 -91 856 284 
Q 544 659 544 1381 
z
M 1991 3584 
L 1991 3584 
z
" transform="scale(0.015625)"/>
       <path id="DejaVuSans-6f" d="M 1959 3097 
Q 1497 3097 1228 2736 
Q 959 2375 959 1747 
Q 959 1119 1226 758 
Q 1494 397 1959 397 
Q 2419 397 2687 759 
Q 2956 1122 2956 1747 
Q 2956 2369 2687 2733 
Q 2419 3097 1959 3097 
z
M 1959 3584 
Q 2709 3584 3137 3096 
Q 3566 2609 3566 1747 
Q 3566 888 3137 398 
Q 2709 -91 1959 -91 
Q 1206 -91 779 398 
Q 353 888 353 1747 
Q 353 2609 779 3096 
Q 1206 3584 1959 3584 
z
" transform="scale(0.015625)"/>
      </defs>
      <use xlink:href="#DejaVuSans-41"/>
      <use xlink:href="#DejaVuSans-76" x="62.533203"/>
      <use xlink:href="#DejaVuSans-65" x="121.712891"/>
      <use xlink:href="#DejaVuSans-72" x="183.236328"/>
      <use xlink:href="#DejaVuSans-61" x="224.349609"/>
      <use xlink:href="#DejaVuSans-67" x="285.628906"/>
      <use xlink:href="#DejaVuSans-65" x="349.105469"/>
      <use xlink:href="#DejaVuSans-20" x="410.628906"/>
      <use xlink:href="#DejaVuSans-46" x="442.416016"/>
      <use xlink:href="#DejaVuSans-69" x="492.685547"/>
      <use xlink:href="#DejaVuSans-72" x="520.46875"/>
      <use xlink:href="#DejaVuSans-69" x="561.582031"/>
      <use xlink:href="#DejaVuSans-6e" x="589.365234"/>
      <use xlink:href="#DejaVuSans-67" x="652.744141"/>
      <use xlink:href="#DejaVuSans-20" x="716.220703"/>
      <use xlink:href="#DejaVuSans-52" x="748.007812"/>
      <use xlink:href="#DejaVuSans-61" x="815.240234"/>
      <use xlink:href="#DejaVuSans-74" x="876.519531"/>
      <use xlink:href="#DejaVuSans-65" x="915.728516"/>
      <use xlink:href="#DejaVuSans-20" x="977.251953"/>
      <use xlink:href="#DejaVuSans-28" x="1009.039062"/>
      <use xlink:href="#DejaVuSans-73" x="1048.052734"/>
      <use xlink:href="#DejaVuSans-70" x="1100.152344"/>
      <use xlink:href="#DejaVuSans-69" x="1163.628906"/>
      <use xlink:href="#DejaVuSans-6b" x="1191.412109"/>
      <use xlink:href="#DejaVuSans-65" x="1245.697266"/>
      <use xlink:href="#DejaVuSans-73" x="1307.220703"/>
      <use xlink:href="#DejaVuSans-2f" x="1359.320312"/>
      <use xlink:href="#DejaVuSans-73" x="1393.011719"/>
      <use xlink:href="#DejaVuSans-20" x="1445.111328"/>
      <use xlink:href="#DejaVuSans-70" x="1476.898438"/>
      <use xlink:href="#DejaVuSans-65" x="1540.375"/>
      <use xlink:href="#DejaVuSans-72" x="1601.898438"/>
      <use xlink:href="#DejaVuSans-20" x="1643.011719"/>
      <use xlink:href="#DejaVuSans-6e" x="1674.798828"/>
      <use xlink:href="#DejaVuSans-65" x="1738.177734"/>
      <use xlink:href="#DejaVuSans-75" x="1799.701172"/>
      <use xlink:href="#DejaVuSans-72" x="1863.080078"/>
      <use xlink:href="#DejaVuSans-6f" x="1901.943359"/>
      <use xlink:href="#DejaVuSans-6e" x="1963.125"/>
      <use xlink:href="#DejaVuSans-29" x="2026.503906"/>
     </g>
    </g>
   </g>
   <g id="PolyCollection_1">
    <defs>
     <path id="m6f100763fe" d="M 58.32 -48.06 
L 58.32 -48.06 
L 85.191864 -48.06 
L 112.063729 -48.06 
L 138.935593 -48.06 
L 165.807458 -48.06 
L 192.679322 -48.06 
L 219.551186 -48.06 
L 246.423051 -48.06 
L 273.294915 -48.06 
L 300.16678 -48.06 
L 327.038644 -48.06 
L 353.910508 -48.067967 
L 380.782373 -48.323817 
L 407.654237 -51.273946 
L 434.526102 -62.463907 
L 461.397966 -71.808028 
L 488.269831 -62.475038 
L 515.141695 -51.644011 
L 542.013559 -52.862478 
L 568.885424 -68.778475 
L 595.757288 -83.862471 
L 622.629153 -72.506594 
L 649.501017 -55.171388 
L 676.372881 -49.013379 
L 703.244746 -48.119132 
L 730.11661 -48.061449 
L 756.988475 -48.06 
L 783.860339 -48.06 
L 810.732203 -48.06 
L 837.604068 -48.06 
L 837.604068 -48.06 
L 837.604068 -48.06 
L 810.732203 -48.06 
L 783.860339 -48.06 
L 756.988475 -48.06 
L 730.11661 -48.063907 
L 703.244746 -48.202369 
L 676.372881 -50.066012 
L 649.501017 -60.359063 
L 622.629153 -83.166474 
L 595.757288 -93.801624 
L 568.885424 -73.105866 
L 542.013559 -53.780811 
L 515.141695 -52.843521 
L 488.269831 -67.568106 
L 461.397966 -80.202037 
L 434.526102 -67.555131 
L 407.654237 -52.409952 
L 380.782373 -48.417066 
L 353.910508 -48.070782 
L 327.038644 -48.06 
L 300.16678 -48.06 
L 273.294915 -48.06 
L 246.423051 -48.06 
L 219.551186 -48.06 
L 192.679322 -48.06 
L 165.807458 -48.06 
L 138.935593 -48.06 
L 112.063729 -48.06 
L 85.191864 -48.06 
L 58.32 -48.06 
z
" style="stroke: #440154; stroke-opacity: 0.3"/>
    </defs>
    <g clip-path="url(#pe732d20cfc)">
     <use xlink:href="#m6f100763fe" x="0" y="576" style="fill: #440154; fill-opacity: 0.3; stroke: #440154; stroke-opacity: 0.3"/>
    </g>
   </g>
   <g id="PolyCollection_2">
    <defs>
     <path id="m61dd063b4a" d="M 58.32 -48.06 
L 58.32 -48.06 
L 85.191864 -48.06 
L 112.063729 -48.06 
L 138.935593 -48.06 
L 165.807458 -48.06 
L 192.679322 -48.06 
L 219.551186 -48.06 
L 246.423051 -48.06 
L 273.294915 -48.06 
L 300.16678 -48.06 
L 327.038644 -48.065837 
L 353.910508 -48.265355 
L 380.782373 -50.827427 
L 407.654237 -63.919905 
L 434.526102 -92.655481 
L 461.397966 -118.777469 
L 488.269831 -112.811836 
L 515.141695 -85.652804 
L 542.013559 -91.170641 
L 568.885424 -110.017594 
L 595.757288 -85.376273 
L 622.629153 -56.38725 
L 649.501017 -48.871195 
L 676.372881 -49.648351 
L 703.244746 -55.192499 
L 730.11661 -60.301167 
L 756.988475 -56.417582 
L 783.860339 -52.183376 
L 810.732203 -56.488536 
L 837.604068 -61.495473 
L 837.604068 -73.096053 
L 837.604068 -73.096053 
L 810.732203 -63.399328 
L 783.860339 -58.008425 
L 756.988475 -67.45807 
L 730.11661 -72.610785 
L 703.244746 -61.378937 
L 676.372881 -50.926768 
L 649.501017 -49.069782 
L 622.629153 -57.572652 
L 595.757288 -90.676726 
L 568.885424 -118.800043 
L 542.013559 -97.057439 
L 515.141695 -89.898067 
L 488.269831 -120.555671 
L 461.397966 -130.722382 
L 434.526102 -104.774174 
L 407.654237 -70.571946 
L 380.782373 -54.527745 
L 353.910508 -52.360074 
L 327.038644 -50.490254 
L 300.16678 -48.600278 
L 273.294915 -48.104349 
L 246.423051 -48.061339 
L 219.551186 -48.06 
L 192.679322 -48.06 
L 165.807458 -48.06 
L 138.935593 -48.06 
L 112.063729 -48.06 
L 85.191864 -48.06 
L 58.32 -48.06 
z
" style="stroke: #31688e; stroke-opacity: 0.3"/>
    </defs>
    <g clip-path="url(#pe732d20cfc)">
     <use xlink:href="#m61dd063b4a" x="0" y="576" style="fill: #31688e; fill-opacity: 0.3; stroke: #31688e; stroke-opacity: 0.3"/>
    </g>
   </g>
   <g id="PolyCollection_3">
    <defs>
     <path id="m9193b8a46d" d="M 58.32 -48.06 
L 58.32 -48.06 
L 85.191864 -48.06 
L 112.063729 -48.06 
L 138.935593 -48.073392 
L 165.807458 -48.503488 
L 192.679322 -53.462784 
L 219.551186 -72.273599 
L 246.423051 -87.986635 
L 273.294915 -72.457863 
L 300.16678 -56.014706 
L 327.038644 -64.158054 
L 353.910508 -99.684705 
L 380.782373 -161.267361 
L 407.654237 -234.058573 
L 434.526102 -290.6371 
L 461.397966 -327.81696 
L 488.269831 -362.601303 
L 515.141695 -376.354159 
L 542.013559 -333.627338 
L 568.885424 -276.181959 
L 595.757288 -262.383594 
L 622.629153 -266.45365 
L 649.501017 -334.250114 
L 676.372881 -422.592827 
L 703.244746 -449.527714 
L 730.11661 -396.854551 
L 756.988475 -300.802075 
L 783.860339 -303.948075 
L 810.732203 -346.559188 
L 837.604068 -329.10503 
L 837.604068 -354.272272 
L 837.604068 -354.272272 
L 810.732203 -369.104341 
L 783.860339 -322.209926 
L 756.988475 -315.297393 
L 730.11661 -414.71859 
L 703.244746 -472.977721 
L 676.372881 -446.724666 
L 649.501017 -352.199769 
L 622.629153 -280.101742 
L 595.757288 -279.025265 
L 568.885424 -295.21734 
L 542.013559 -353.947505 
L 515.141695 -397.811248 
L 488.269831 -384.786486 
L 461.397966 -349.529335 
L 434.526102 -308.3275 
L 407.654237 -245.53003 
L 380.782373 -170.429164 
L 353.910508 -109.475005 
L 327.038644 -69.760044 
L 300.16678 -57.255529 
L 273.294915 -72.559606 
L 246.423051 -87.989707 
L 219.551186 -72.273599 
L 192.679322 -53.462784 
L 165.807458 -48.503488 
L 138.935593 -48.073392 
L 112.063729 -48.06 
L 85.191864 -48.06 
L 58.32 -48.06 
z
" style="stroke: #35b779; stroke-opacity: 0.3"/>
    </defs>
    <g clip-path="url(#pe732d20cfc)">
     <use xlink:href="#m9193b8a46d" x="0" y="576" style="fill: #35b779; fill-opacity: 0.3; stroke: #35b779; stroke-opacity: 0.3"/>
    </g>
   </g>
   <g id="PolyCollection_4">
    <defs>
     <path id="m75720f07e4" d="M 58.32 -48.06 
L 58.32 -48.06 
L 85.191864 -48.06 
L 112.063729 -48.06 
L 138.935593 -48.06 
L 165.807458 -48.06 
L 192.679322 -48.06 
L 219.551186 -48.06 
L 246.423051 -48.076614 
L 273.294915 -48.646589 
L 300.16678 -55.968277 
L 327.038644 -92.787409 
L 353.910508 -163.415384 
L 380.782373 -186.633749 
L 407.654237 -120.592336 
L 434.526102 -63.298788 
L 461.397966 -49.282328 
L 488.269831 -48.096409 
L 515.141695 -48.06 
L 542.013559 -48.06 
L 568.885424 -48.06 
L 595.757288 -48.06 
L 622.629153 -48.06 
L 649.501017 -48.06 
L 676.372881 -48.06 
L 703.244746 -48.06 
L 730.11661 -48.06 
L 756.988475 -48.06 
L 783.860339 -48.06 
L 810.732203 -48.06 
L 837.604068 -48.06 
L 837.604068 -48.06 
L 837.604068 -48.06 
L 810.732203 -48.06 
L 783.860339 -48.06 
L 756.988475 -48.06 
L 730.11661 -48.06 
L 703.244746 -48.06 
L 676.372881 -48.06 
L 649.501017 -48.06 
L 622.629153 -48.06 
L 595.757288 -48.06 
L 568.885424 -48.06 
L 542.013559 -48.06 
L 515.141695 -48.06 
L 488.269831 -48.099926 
L 461.397966 -49.401709 
L 434.526102 -64.814498 
L 407.654237 -128.132694 
L 380.782373 -202.415376 
L 353.910508 -178.510111 
L 327.038644 -99.505177 
L 300.16678 -57.267119 
L 273.294915 -48.747162 
L 246.423051 -48.079545 
L 219.551186 -48.06 
L 192.679322 -48.06 
L 165.807458 -48.06 
L 138.935593 -48.06 
L 112.063729 -48.06 
L 85.191864 -48.06 
L 58.32 -48.06 
z
" style="stroke: #fde725; stroke-opacity: 0.3"/>
    </defs>
    <g clip-path="url(#pe732d20cfc)">
     <use xlink:href="#m75720f07e4" x="0" y="576" style="fill: #fde725; fill-opacity: 0.3; stroke: #fde725; stroke-opacity: 0.3"/>
    </g>
   </g>
   <g id="line2d_1">
    <path d="M 58.32 527.94 
L 85.191864 527.94 
L 112.063729 527.94 
L 138.935593 527.94 
L 165.807458 527.94 
L 192.679322 527.94 
L 219.551186 527.94 
L 246.423051 527.94 
L 273.294915 527.94 
L 300.16678 527.94 
L 327.038644 527.94 
L 353.910508 527.930625 
L 380.782373 527.629559 
L 407.654237 524.158051 
L 434.526102 510.990481 
L 461.397966 499.994967 
L 488.269831 510.978428 
L 515.141695 523.756234 
L 542.013559 522.678355 
L 568.885424 505.05783 
L 595.757288 487.167953 
L 622.629153 498.163466 
L 649.501017 518.234775 
L 676.372881 526.460304 
L 703.244746 527.83925 
L 730.11661 527.937322 
L 756.988475 527.94 
L 783.860339 527.94 
L 810.732203 527.94 
L 837.604068 527.94 
" clip-path="url(#pe732d20cfc)" style="fill: none; stroke: #440154; stroke-width: 2; stroke-linecap: round"/>
   </g>
   <g id="line2d_2">
    <path d="M 58.32 527.94 
L 85.191864 527.94 
L 112.063729 527.94 
L 138.935593 527.94 
L 165.807458 527.94 
L 192.679322 527.94 
L 219.551186 527.94 
L 246.423051 527.93933 
L 273.294915 527.917826 
L 300.16678 527.669861 
L 327.038644 526.721954 
L 353.910508 525.687286 
L 380.782373 523.322414 
L 407.654237 508.754075 
L 434.526102 477.285172 
L 461.397966 451.250074 
L 488.269831 459.316247 
L 515.141695 488.224565 
L 542.013559 481.88596 
L 568.885424 461.591182 
L 595.757288 487.9735 
L 622.629153 519.020049 
L 649.501017 527.029511 
L 676.372881 525.712441 
L 703.244746 517.714282 
L 730.11661 509.544024 
L 756.988475 514.062174 
L 783.860339 520.904099 
L 810.732203 516.056068 
L 837.604068 508.704237 
" clip-path="url(#pe732d20cfc)" style="fill: none; stroke: #31688e; stroke-width: 2; stroke-linecap: round"/>
   </g>
   <g id="line2d_3">
    <path d="M 58.32 527.94 
L 85.191864 527.94 
L 112.063729 527.94 
L 138.935593 527.926608 
L 165.807458 527.496512 
L 192.679322 522.537216 
L 219.551186 503.726401 
L 246.423051 488.011829 
L 273.294915 503.491265 
L 300.16678 519.364882 
L 327.038644 509.040951 
L 353.910508 471.420145 
L 380.782373 410.151738 
L 407.654237 336.205699 
L 434.526102 276.5177 
L 461.397966 237.326852 
L 488.269831 202.306106 
L 515.141695 188.917297 
L 542.013559 232.212578 
L 568.885424 290.300351 
L 595.757288 305.29557 
L 622.629153 302.722304 
L 649.501017 232.775059 
L 676.372881 141.341254 
L 703.244746 114.747283 
L 730.11661 170.21343 
L 756.988475 267.950266 
L 783.860339 262.920999 
L 810.732203 218.168236 
L 837.604068 234.311349 
" clip-path="url(#pe732d20cfc)" style="fill: none; stroke: #35b779; stroke-width: 2; stroke-linecap: round"/>
   </g>
   <g id="line2d_4">
    <path d="M 58.32 527.94 
L 85.191864 527.94 
L 112.063729 527.94 
L 138.935593 527.94 
L 165.807458 527.94 
L 192.679322 527.94 
L 219.551186 527.94 
L 246.423051 527.921921 
L 273.294915 527.303124 
L 300.16678 519.382302 
L 327.038644 479.853707 
L 353.910508 405.037253 
L 380.782373 381.475438 
L 407.654237 451.637485 
L 434.526102 511.943357 
L 461.397966 526.657981 
L 488.269831 527.901832 
L 515.141695 527.94 
L 542.013559 527.94 
L 568.885424 527.94 
L 595.757288 527.94 
L 622.629153 527.94 
L 649.501017 527.94 
L 676.372881 527.94 
L 703.244746 527.94 
L 730.11661 527.94 
L 756.988475 527.94 
L 783.860339 527.94 
L 810.732203 527.94 
L 837.604068 527.94 
" clip-path="url(#pe732d20cfc)" style="fill: none; stroke: #fde725; stroke-width: 2; stroke-linecap: round"/>
   </g>
   <g id="patch_3">
    <path d="M 58.32 527.94 
L 58.32 27.6 
" style="fill: none; stroke: #262626; stroke-width: 1.25; stroke-linejoin: miter; stroke-linecap: square"/>
   </g>
   <g id="patch_4">
    <path d="M 58.32 527.94 
L 851.04 527.94 
" style="fill: none; stroke: #262626; stroke-width: 1.25; stroke-linejoin: miter; stroke-linecap: square"/>
   </g>
   <g id="text_17">
    <!-- Average - 105  - endstop - L23_left -->
    <g style="fill: #262626" transform="translate(350.788125 21.6)scale(0.12 -0.12)">
     <defs>
      <path id="DejaVuSans-2d" d="M 313 2009 
L 1997 2009 
L 1997 1497 
L 313 1497 
L 313 2009 
z
" transform="scale(0.015625)"/>
      <path id="DejaVuSans-35" d="M 691 4666 
L 3169 4666 
L 3169 4134 
L 1269 4134 
L 1269 2991 
Q 1406 3038 1543 3061 
Q 1681 3084 1819 3084 
Q 2600 3084 3056 2656 
Q 3513 2228 3513 1497 
Q 3513 744 3044 326 
Q 2575 -91 1722 -91 
Q 1428 -91 1123 -41 
Q 819 9 494 109 
L 494 744 
Q 775 591 1075 516 
Q 1375 441 1709 441 
Q 2250 441 2565 725 
Q 2881 1009 2881 1497 
Q 2881 1984 2565 2268 
Q 2250 2553 1709 2553 
Q 1456 2553 1204 2497 
Q 953 2441 691 2322 
L 691 4666 
z
" transform="scale(0.015625)"/>
      <path id="DejaVuSans-64" d="M 2906 2969 
L 2906 4863 
L 3481 4863 
L 3481 0 
L 2906 0 
L 2906 525 
Q 2725 213 2448 61 
Q 2172 -91 1784 -91 
Q 1150 -91 751 415 
Q 353 922 353 1747 
Q 353 2572 751 3078 
Q 1150 3584 1784 3584 
Q 2172 3584 2448 3432 
Q 2725 3281 2906 2969 
z
M 947 1747 
Q 947 1113 1208 752 
Q 1469 391 1925 391 
Q 2381 391 2643 752 
Q 2906 1113 2906 1747 
Q 2906 2381 2643 2742 
Q 2381 3103 1925 3103 
Q 1469 3103 1208 2742 
Q 947 2381 947 1747 
z
" transform="scale(0.015625)"/>
      <path id="DejaVuSans-4c" d="M 628 4666 
L 1259 4666 
L 1259 531 
L 3531 531 
L 3531 0 
L 628 0 
L 628 4666 
z
" transform="scale(0.015625)"/>
      <path id="DejaVuSans-33" d="M 2597 2516 
Q 3050 2419 3304 2112 
Q 3559 1806 3559 1356 
Q 3559 666 3084 287 
Q 2609 -91 1734 -91 
Q 1441 -91 1130 -33 
Q 819 25 488 141 
L 488 750 
Q 750 597 1062 519 
Q 1375 441 1716 441 
Q 2309 441 2620 675 
Q 2931 909 2931 1356 
Q 2931 1769 2642 2001 
Q 2353 2234 1838 2234 
L 1294 2234 
L 1294 2753 
L 1863 2753 
Q 2328 2753 2575 2939 
Q 2822 3125 2822 3475 
Q 2822 3834 2567 4026 
Q 2313 4219 1838 4219 
Q 1578 4219 1281 4162 
Q 984 4106 628 3988 
L 628 4550 
Q 988 4650 1302 4700 
Q 1616 4750 1894 4750 
Q 2613 4750 3031 4423 
Q 3450 4097 3450 3541 
Q 3450 3153 3228 2886 
Q 3006 2619 2597 2516 
z
" transform="scale(0.015625)"/>
      <path id="DejaVuSans-5f" d="M 3263 -1063 
L 3263 -1509 
L -63 -1509 
L -63 -1063 
L 3263 -1063 
z
" transform="scale(0.015625)"/>
      <path id="DejaVuSans-6c" d="M 603 4863 
L 1178 4863 
L 1178 0 
L 603 0 
L 603 4863 
z
" transform="scale(0.015625)"/>
      <path id="DejaVuSans-66" d="M 2375 4863 
L 2375 4384 
L 1825 4384 
Q 1516 4384 1395 4259 
Q 1275 4134 1275 3809 
L 1275 3500 
L 2222 3500 
L 2222 3053 
L 1275 3053 
L 1275 0 
L 697 0 
L 697 3053 
L 147 3053 
L 147 3500 
L 697 3500 
L 697 3744 
Q 697 4328 969 4595 
Q 1241 4863 1831 4863 
L 2375 4863 
z
" transform="scale(0.015625)"/>
     </defs>
     <use xlink:href="#DejaVuSans-41"/>
     <use xlink:href="#DejaVuSans-76" x="62.533203"/>
     <use xlink:href="#DejaVuSans-65" x="121.712891"/>
     <use xlink:href="#DejaVuSans-72" x="183.236328"/>
     <use xlink:href="#DejaVuSans-61" x="224.349609"/>
     <use xlink:href="#DejaVuSans-67" x="285.628906"/>
     <use xlink:href="#DejaVuSans-65" x="349.105469"/>
     <use xlink:href="#DejaVuSans-20" x="410.628906"/>
     <use xlink:href="#DejaVuSans-2d" x="442.416016"/>
     <use xlink:href="#DejaVuSans-20" x="478.5"/>
     <use xlink:href="#DejaVuSans-31" x="510.287109"/>
     <use xlink:href="#DejaVuSans-30" x="573.910156"/>
     <use xlink:href="#DejaVuSans-35" x="637.533203"/>
     <use xlink:href="#DejaVuSans-20" x="701.15625"/>
     <use xlink:href="#DejaVuSans-20" x="732.943359"/>
     <use xlink:href="#DejaVuSans-2d" x="764.730469"/>
     <use xlink:href="#DejaVuSans-20" x="800.814453"/>
     <use xlink:href="#DejaVuSans-65" x="832.601562"/>
     <use xlink:href="#DejaVuSans-6e" x="894.125"/>
     <use xlink:href="#DejaVuSans-64" x="957.503906"/>
     <use xlink:href="#DejaVuSans-73" x="1020.980469"/>
     <use xlink:href="#DejaVuSans-74" x="1073.080078"/>
     <use xlink:href="#DejaVuSans-6f" x="1112.289062"/>
     <use xlink:href="#DejaVuSans-70" x="1173.470703"/>
     <use xlink:href="#DejaVuSans-20" x="1236.947266"/>
     <use xlink:href="#DejaVuSans-2d" x="1268.734375"/>
     <use xlink:href="#DejaVuSans-20" x="1304.818359"/>
     <use xlink:href="#DejaVuSans-4c" x="1336.605469"/>
     <use xlink:href="#DejaVuSans-32" x="1392.318359"/>
     <use xlink:href="#DejaVuSans-33" x="1455.941406"/>
     <use xlink:href="#DejaVuSans-5f" x="1519.564453"/>
     <use xlink:href="#DejaVuSans-6c" x="1569.564453"/>
     <use xlink:href="#DejaVuSans-65" x="1597.347656"/>
     <use xlink:href="#DejaVuSans-66" x="1658.871094"/>
     <use xlink:href="#DejaVuSans-74" x="1692.326172"/>
    </g>
   </g>
   <g id="legend_1">
    <g id="patch_5">
     <path d="M 66.02 118.0975 
L 248.369063 118.0975 
Q 250.569063 118.0975 250.569063 115.8975 
L 250.569063 35.3 
Q 250.569063 33.1 248.369063 33.1 
L 66.02 33.1 
Q 63.82 33.1 63.82 35.3 
L 63.82 115.8975 
Q 63.82 118.0975 66.02 118.0975 
z
" style="fill: #ffffff; opacity: 0.8; stroke: #cccccc; stroke-linejoin: miter"/>
    </g>
    <g id="text_18">
     <!-- Line Length -->
     <g style="fill: #262626" transform="translate(122.087031 46.618125)scale(0.12 -0.12)">
      <defs>
       <path id="DejaVuSans-68" d="M 3513 2113 
L 3513 0 
L 2938 0 
L 2938 2094 
Q 2938 2591 2744 2837 
Q 2550 3084 2163 3084 
Q 1697 3084 1428 2787 
Q 1159 2491 1159 1978 
L 1159 0 
L 581 0 
L 581 4863 
L 1159 4863 
L 1159 2956 
Q 1366 3272 1645 3428 
Q 1925 3584 2291 3584 
Q 2894 3584 3203 3211 
Q 3513 2838 3513 2113 
z
" transform="scale(0.015625)"/>
      </defs>
      <use xlink:href="#DejaVuSans-4c"/>
      <use xlink:href="#DejaVuSans-69" x="55.712891"/>
      <use xlink:href="#DejaVuSans-6e" x="83.496094"/>
      <use xlink:href="#DejaVuSans-65" x="146.875"/>
      <use xlink:href="#DejaVuSans-20" x="208.398438"/>
      <use xlink:href="#DejaVuSans-4c" x="240.185547"/>
      <use xlink:href="#DejaVuSans-65" x="294.148438"/>
      <use xlink:href="#DejaVuSans-6e" x="355.671875"/>
      <use xlink:href="#DejaVuSans-67" x="419.050781"/>
      <use xlink:href="#DejaVuSans-74" x="482.527344"/>
      <use xlink:href="#DejaVuSans-68" x="521.736328"/>
     </g>
    </g>
    <g id="line2d_5">
     <path d="M 68.22 59.122031 
L 79.22 59.122031 
L 90.22 59.122031 
" style="fill: none; stroke: #440154; stroke-width: 2; stroke-linecap: round"/>
    </g>
    <g id="text_19">
     <!-- Line Length 10 visual deg째 -->
     <g style="fill: #262626" transform="translate(99.02 62.972031)scale(0.11 -0.11)">
      <defs>
       <path id="DejaVuSans-b0" d="M 1600 4347 
Q 1350 4347 1178 4173 
Q 1006 4000 1006 3750 
Q 1006 3503 1178 3333 
Q 1350 3163 1600 3163 
Q 1850 3163 2022 3333 
Q 2194 3503 2194 3750 
Q 2194 3997 2020 4172 
Q 1847 4347 1600 4347 
z
M 1600 4750 
Q 1800 4750 1984 4673 
Q 2169 4597 2303 4453 
Q 2447 4313 2519 4134 
Q 2591 3956 2591 3750 
Q 2591 3338 2302 3052 
Q 2013 2766 1594 2766 
Q 1172 2766 890 3047 
Q 609 3328 609 3750 
Q 609 4169 896 4459 
Q 1184 4750 1600 4750 
z
" transform="scale(0.015625)"/>
      </defs>
      <use xlink:href="#DejaVuSans-4c"/>
      <use xlink:href="#DejaVuSans-69" x="55.712891"/>
      <use xlink:href="#DejaVuSans-6e" x="83.496094"/>
      <use xlink:href="#DejaVuSans-65" x="146.875"/>
      <use xlink:href="#DejaVuSans-20" x="208.398438"/>
      <use xlink:href="#DejaVuSans-4c" x="240.185547"/>
      <use xlink:href="#DejaVuSans-65" x="294.148438"/>
      <use xlink:href="#DejaVuSans-6e" x="355.671875"/>
      <use xlink:href="#DejaVuSans-67" x="419.050781"/>
      <use xlink:href="#DejaVuSans-74" x="482.527344"/>
      <use xlink:href="#DejaVuSans-68" x="521.736328"/>
      <use xlink:href="#DejaVuSans-20" x="585.115234"/>
      <use xlink:href="#DejaVuSans-31" x="616.902344"/>
      <use xlink:href="#DejaVuSans-30" x="680.525391"/>
      <use xlink:href="#DejaVuSans-20" x="744.148438"/>
      <use xlink:href="#DejaVuSans-76" x="775.935547"/>
      <use xlink:href="#DejaVuSans-69" x="835.115234"/>
      <use xlink:href="#DejaVuSans-73" x="862.898438"/>
      <use xlink:href="#DejaVuSans-75" x="914.998047"/>
      <use xlink:href="#DejaVuSans-61" x="978.376953"/>
      <use xlink:href="#DejaVuSans-6c" x="1039.65625"/>
      <use xlink:href="#DejaVuSans-20" x="1067.439453"/>
      <use xlink:href="#DejaVuSans-64" x="1099.226562"/>
      <use xlink:href="#DejaVuSans-65" x="1162.703125"/>
      <use xlink:href="#DejaVuSans-67" x="1224.226562"/>
      <use xlink:href="#DejaVuSans-b0" x="1287.703125"/>
     </g>
    </g>
    <g id="line2d_6">
     <path d="M 68.22 75.267969 
L 79.22 75.267969 
L 90.22 75.267969 
" style="fill: none; stroke: #31688e; stroke-width: 2; stroke-linecap: round"/>
    </g>
    <g id="text_20">
     <!-- Line Length 15 visual deg째 -->
     <g style="fill: #262626" transform="translate(99.02 79.117969)scale(0.11 -0.11)">
      <use xlink:href="#DejaVuSans-4c"/>
      <use xlink:href="#DejaVuSans-69" x="55.712891"/>
      <use xlink:href="#DejaVuSans-6e" x="83.496094"/>
      <use xlink:href="#DejaVuSans-65" x="146.875"/>
      <use xlink:href="#DejaVuSans-20" x="208.398438"/>
      <use xlink:href="#DejaVuSans-4c" x="240.185547"/>
      <use xlink:href="#DejaVuSans-65" x="294.148438"/>
      <use xlink:href="#DejaVuSans-6e" x="355.671875"/>
      <use xlink:href="#DejaVuSans-67" x="419.050781"/>
      <use xlink:href="#DejaVuSans-74" x="482.527344"/>
      <use xlink:href="#DejaVuSans-68" x="521.736328"/>
      <use xlink:href="#DejaVuSans-20" x="585.115234"/>
      <use xlink:href="#DejaVuSans-31" x="616.902344"/>
      <use xlink:href="#DejaVuSans-35" x="680.525391"/>
      <use xlink:href="#DejaVuSans-20" x="744.148438"/>
      <use xlink:href="#DejaVuSans-76" x="775.935547"/>
      <use xlink:href="#DejaVuSans-69" x="835.115234"/>
      <use xlink:href="#DejaVuSans-73" x="862.898438"/>
      <use xlink:href="#DejaVuSans-75" x="914.998047"/>
      <use xlink:href="#DejaVuSans-61" x="978.376953"/>
      <use xlink:href="#DejaVuSans-6c" x="1039.65625"/>
      <use xlink:href="#DejaVuSans-20" x="1067.439453"/>
      <use xlink:href="#DejaVuSans-64" x="1099.226562"/>
      <use xlink:href="#DejaVuSans-65" x="1162.703125"/>
      <use xlink:href="#DejaVuSans-67" x="1224.226562"/>
      <use xlink:href="#DejaVuSans-b0" x="1287.703125"/>
     </g>
    </g>
    <g id="line2d_7">
     <path d="M 68.22 91.413906 
L 79.22 91.413906 
L 90.22 91.413906 
" style="fill: none; stroke: #35b779; stroke-width: 2; stroke-linecap: round"/>
    </g>
    <g id="text_21">
     <!-- Line Length 25 visual deg째 -->
     <g style="fill: #262626" transform="translate(99.02 95.263906)scale(0.11 -0.11)">
      <use xlink:href="#DejaVuSans-4c"/>
      <use xlink:href="#DejaVuSans-69" x="55.712891"/>
      <use xlink:href="#DejaVuSans-6e" x="83.496094"/>
      <use xlink:href="#DejaVuSans-65" x="146.875"/>
      <use xlink:href="#DejaVuSans-20" x="208.398438"/>
      <use xlink:href="#DejaVuSans-4c" x="240.185547"/>
      <use xlink:href="#DejaVuSans-65" x="294.148438"/>
      <use xlink:href="#DejaVuSans-6e" x="355.671875"/>
      <use xlink:href="#DejaVuSans-67" x="419.050781"/>
      <use xlink:href="#DejaVuSans-74" x="482.527344"/>
      <use xlink:href="#DejaVuSans-68" x="521.736328"/>
      <use xlink:href="#DejaVuSans-20" x="585.115234"/>
      <use xlink:href="#DejaVuSans-32" x="616.902344"/>
      <use xlink:href="#DejaVuSans-35" x="680.525391"/>
      <use xlink:href="#DejaVuSans-20" x="744.148438"/>
      <use xlink:href="#DejaVuSans-76" x="775.935547"/>
      <use xlink:href="#DejaVuSans-69" x="835.115234"/>
      <use xlink:href="#DejaVuSans-73" x="862.898438"/>
      <use xlink:href="#DejaVuSans-75" x="914.998047"/>
      <use xlink:href="#DejaVuSans-61" x="978.376953"/>
      <use xlink:href="#DejaVuSans-6c" x="1039.65625"/>
      <use xlink:href="#DejaVuSans-20" x="1067.439453"/>
      <use xlink:href="#DejaVuSans-64" x="1099.226562"/>
      <use xlink:href="#DejaVuSans-65" x="1162.703125"/>
      <use xlink:href="#DejaVuSans-67" x="1224.226562"/>
      <use xlink:href="#DejaVuSans-b0" x="1287.703125"/>
     </g>
    </g>
    <g id="line2d_8">
     <path d="M 68.22 107.559844 
L 79.22 107.559844 
L 90.22 107.559844 
" style="fill: none; stroke: #fde725; stroke-width: 2; stroke-linecap: round"/>
    </g>
    <g id="text_22">
     <!-- Line Length 35 visual deg째 -->
     <g style="fill: #262626" transform="translate(99.02 111.409844)scale(0.11 -0.11)">
      <use xlink:href="#DejaVuSans-4c"/>
      <use xlink:href="#DejaVuSans-69" x="55.712891"/>
      <use xlink:href="#DejaVuSans-6e" x="83.496094"/>
      <use xlink:href="#DejaVuSans-65" x="146.875"/>
      <use xlink:href="#DejaVuSans-20" x="208.398438"/>
      <use xlink:href="#DejaVuSans-4c" x="240.185547"/>
      <use xlink:href="#DejaVuSans-65" x="294.148438"/>
      <use xlink:href="#DejaVuSans-6e" x="355.671875"/>
      <use xlink:href="#DejaVuSans-67" x="419.050781"/>
      <use xlink:href="#DejaVuSans-74" x="482.527344"/>
      <use xlink:href="#DejaVuSans-68" x="521.736328"/>
      <use xlink:href="#DejaVuSans-20" x="585.115234"/>
      <use xlink:href="#DejaVuSans-33" x="616.902344"/>
      <use xlink:href="#DejaVuSans-35" x="680.525391"/>
      <use xlink:href="#DejaVuSans-20" x="744.148438"/>
      <use xlink:href="#DejaVuSans-76" x="775.935547"/>
      <use xlink:href="#DejaVuSans-69" x="835.115234"/>
      <use xlink:href="#DejaVuSans-73" x="862.898438"/>
      <use xlink:href="#DejaVuSans-75" x="914.998047"/>
      <use xlink:href="#DejaVuSans-61" x="978.376953"/>
      <use xlink:href="#DejaVuSans-6c" x="1039.65625"/>
      <use xlink:href="#DejaVuSans-20" x="1067.439453"/>
      <use xlink:href="#DejaVuSans-64" x="1099.226562"/>
      <use xlink:href="#DejaVuSans-65" x="1162.703125"/>
      <use xlink:href="#DejaVuSans-67" x="1224.226562"/>
      <use xlink:href="#DejaVuSans-b0" x="1287.703125"/>
     </g>
    </g>
   </g>
  </g>
 </g>
 <defs>
  <clipPath id="pe732d20cfc">
   <rect x="58.32" y="27.6" width="792.72" height="500.34"/>
  </clipPath>
 </defs>
</svg>
